name Walk9.mot
datacolumns 19
datarows 30
range 1.00500000 1.15000000
endheader

                time	   L_ground_force_vx	   L_ground_force_vy	   L_ground_force_vz	   L_ground_force_px	   L_ground_force_py	   L_ground_force_pz	   R_ground_force_vx	   R_ground_force_vy	   R_ground_force_vz	   R_ground_force_px	   R_ground_force_py	   R_ground_force_pz	   L_ground_torque_x	   L_ground_torque_y	   L_ground_torque_z	   R_ground_torque_x	   R_ground_torque_y	   R_ground_torque_z	
          1.00500000	         -0.00000000	         -0.00000003	          0.00000000	         -0.00000000	          0.00000000	         -0.00000000	        -15.51870461	        142.68789491	         16.02331921	         -0.05208845	          0.00000000	          0.05101826	          0.00000000	          0.00000000	          0.00000000	          0.00000000	         -0.02103229	          0.00000000	
          1.01000000	          0.00000000	         -0.00000004	          0.00000000	         -0.00000000	          0.00000000	         -0.00000000	        -24.93708341	        197.58124395	         19.69194882	         -0.11253591	          0.00000000	          0.11488131	          0.00000000	          0.00000000	          0.00000000	          0.00000000	          0.06347124	          0.00000000	
          1.01500000	          0.00000000	         -0.00000005	          0.00000001	         -0.00000000	          0.00000000	         -0.00000000	        -35.05504311	        256.31491661	         22.99764865	         -0.16562718	          0.00000000	          0.17151898	          0.00000000	          0.00000000	          0.00000000	          0.00000000	          0.17011174	          0.00000000	
          1.02000000	          0.00000000	         -0.00000006	          0.00000001	         -0.00000000	          0.00000000	         -0.00000000	        -45.72942871	        315.78092116	         25.35999430	         -0.20947500	          0.00000000	          0.21909966	          0.00000000	          0.00000000	          0.00000000	          0.00000000	          0.30486302	          0.00000000	
          1.02500000	          0.00000000	         -0.00000008	          0.00000001	         -0.00000000	          0.00000000	         -0.00000000	        -56.99224772	        373.43720642	         26.15121233	         -0.24356625	          0.00000000	          0.25718809	          0.00000000	          0.00000000	          0.00000000	          0.00000000	          0.47558587	          0.00000000	
          1.03000000	          0.00000001	         -0.00000009	          0.00000001	         -0.00000000	          0.00000000	         -0.00000000	        -68.91309088	        427.66589083	         24.87795713	         -0.26831518	          0.00000000	          0.28627100	          0.00000000	          0.00000000	          0.00000000	          0.00000000	          0.68938959	          0.00000000	
          1.03500000	          0.00000001	         -0.00000009	          0.00000001	         -0.00000000	          0.00000000	         -0.00000000	        -81.45627594	        477.47027782	         21.30418386	         -0.28470824	          0.00000000	          0.30737846	          0.00000000	          0.00000000	          0.00000000	          0.00000000	          0.94792562	          0.00000000	
          1.04000000	          0.00000001	         -0.00000009	          0.00000001	         -0.00000000	          0.00000000	         -0.00000000	        -94.40577714	        522.38907130	         15.49890466	         -0.29403789	          0.00000000	          0.32179660	          0.00000000	          0.00000000	          0.00000000	          0.00000000	          1.24359682	          0.00000000	
          1.04500000	          0.00000002	         -0.00000008	          0.00000000	         -0.00000000	          0.00000000	         -0.00000000	       -107.38744119	        562.53562183	          7.83116596	         -0.29771440	          0.00000000	          0.33086527	          0.00000000	          0.00000000	          0.00000000	          0.00000000	          1.55710644	          0.00000000	
          1.05000000	          0.00000002	         -0.00000005	          0.00000000	          0.00000000	          0.00000000	          0.00000000	       -119.97587307	        598.39410581	         -1.06493386	         -0.29713988	          0.00000000	          0.33584250	          0.00000000	          0.00000000	          0.00000000	          0.00000000	          1.85738368	          0.00000000	
          1.05500000	          0.00000002	          0.00000001	         -0.00000001	          0.00000000	          0.00000000	          0.00000000	       -131.78235770	        630.51623291	        -10.37327739	         -0.29361486	          0.00000000	          0.33782933	          0.00000000	          0.00000000	          0.00000000	          0.00000000	          2.10778674	          0.00000000	
          1.06000000	          0.00000002	          0.00000010	         -0.00000002	          0.00000000	          0.00000000	          0.00000000	       -142.46650141	        659.46302923	        -19.25855876	         -0.28826351	          0.00000000	          0.33774456	          0.00000000	          0.00000000	          0.00000000	          0.00000000	          2.27735908	          0.00000000	
          1.06500000	          0.00000002	          0.00000022	         -0.00000003	          0.00000000	          0.00000000	          0.00000000	       -151.72991817	        685.94497472	        -27.05939481	         -0.28199415	          0.00000000	          0.33632474	          0.00000000	          0.00000000	          0.00000000	          0.00000000	          2.35175386	          0.00000000	
          1.07000000	          0.00000002	          0.00000038	         -0.00000005	          0.00000000	          0.00000000	          0.00000000	       -159.34108485	        710.80133975	        -33.36510279	         -0.27550134	          0.00000000	          0.33413908	          0.00000000	          0.00000000	          0.00000000	          0.00000000	          2.33592675	          0.00000000	
          1.07500000	          0.00000001	          0.00000058	         -0.00000007	          0.00000000	          0.00000000	          0.00000000	       -165.15760110	        734.76087645	        -37.95920618	         -0.26928863	          0.00000000	          0.33160563	          0.00000000	         -0.00000000	          0.00000000	          0.00000000	          2.24696851	          0.00000000	
          1.08000000	         -0.00000001	          0.00000083	         -0.00000010	          0.00000000	          0.00000000	          0.00000000	       -169.11145826	        758.25802233	        -40.75594588	         -0.26368949	          0.00000000	          0.32901206	          0.00000000	         -0.00000000	          0.00000000	          0.00000000	          2.10488753	          0.00000000	
          1.08500000	         -0.00000003	          0.00000112	         -0.00000013	          0.00000000	          0.00000000	          0.00000000	       -171.18927031	        781.42817857	        -41.77144878	         -0.25888943	          0.00000000	          0.32654249	          0.00000000	         -0.00000000	          0.00000000	          0.00000000	          1.92541096	          0.00000000	
          1.09000000	         -0.00000006	          0.00000143	         -0.00000016	          0.00000000	          0.00000000	          0.00000000	       -171.43330430	        804.13115335	        -41.10515011	         -0.25495487	          0.00000000	          0.32430353	          0.00000000	         -0.00000000	          0.00000000	          0.00000000	          1.71795049	          0.00000000	
          1.09500000	         -0.00000011	          0.00000173	         -0.00000018	          0.00000000	          0.00000000	          0.00000000	       -169.95180183	        825.94014466	        -38.93958098	         -0.25186318	          0.00000000	          0.32234922	          0.00000000	         -0.00000000	          0.00000000	          0.00000000	          1.48894685	          0.00000000	
          1.10000000	         -0.00000016	          0.00000199	         -0.00000020	          0.00000000	          0.00000000	          0.00000000	       -166.92454265	        846.19155111	        -35.55525334	         -0.24952882	          0.00000000	          0.32069963	          0.00000000	         -0.00000000	          0.00000000	          0.00000000	          1.24563275	          0.00000000	
          1.10500000	         -0.00000022	          0.00000215	         -0.00000020	          0.00000000	          0.00000000	          0.00000000	       -162.59293199	        864.11350813	        -31.32610736	         -0.24782659	          0.00000000	          0.31935259	          0.00000000	         -0.00000000	          0.00000000	          0.00000000	          0.99707355	          0.00000000	
          1.11000000	         -0.00000029	          0.00000214	         -0.00000018	          0.00000000	          0.00000000	          0.00000000	       -157.23212464	        878.96203407	        -26.67846268	         -0.24661299	          0.00000000	          0.31829257	          0.00000000	         -0.00000000	          0.00000000	          0.00000000	          0.75267440	          0.00000000	
          1.11500000	         -0.00000037	          0.00000185	         -0.00000013	          0.00000000	          0.00000000	          0.00000000	       -151.11516281	        890.12157407	        -22.03114500	         -0.24574412	          0.00000000	          0.31749568	          0.00000000	         -0.00000000	          0.00000000	          0.00000000	          0.52008584	          0.00000000	
          1.12000000	         -0.00000044	          0.00000117	         -0.00000002	         -0.00000000	          0.00000000	         -0.00000000	       -144.48327464	        897.15870965	        -17.74348394	         -0.24508831	          0.00000000	          0.31693452	          0.00000000	         -0.00000000	          0.00000000	          0.00000000	          0.30455494	          0.00000000	
          1.12500000	         -0.00000049	         -0.00000003	          0.00000014	         -0.00000000	          0.00000000	         -0.00000000	       -137.53654890	        899.83943707	        -14.08406895	         -0.24453427	          0.00000000	          0.31658142	          0.00000000	         -0.00000000	          0.00000000	          0.00000000	          0.10911722	          0.00000000	
          1.13000000	         -0.00000052	         -0.00000190	          0.00000038	         -0.00000000	          0.00000000	         -0.00000000	       -130.44487241	        898.12115199	        -11.22179219	         -0.24399260	          0.00000000	          0.31640921	          0.00000000	         -0.00000000	          0.00000000	          0.00000000	         -0.06408006	          0.00000000	
          1.13500000	         -0.00000049	         -0.00000458	          0.00000070	         -0.00000001	          0.00000000	         -0.00000000	       -123.35864565	        892.12751292	         -9.23048400	         -0.24339379	          0.00000000	          0.31639286	          0.00000000	         -0.00000000	          0.00000000	          0.00000000	         -0.21251599	          0.00000000	
          1.14000000	         -0.00000039	         -0.00000819	          0.00000112	         -0.00000001	          0.00000000	         -0.00000001	       -116.40416221	        882.12352700	         -8.09729872	         -0.24268720	          0.00000000	          0.31650795	          0.00000000	         -0.00000000	          0.00000000	          0.00000000	         -0.33353088	          0.00000000	
          1.14500000	         -0.00000019	         -0.00001282	          0.00000164	         -0.00000002	          0.00000000	         -0.00000001	       -109.66863377	        868.50069796	         -7.73331474	         -0.24183961	          0.00000000	          0.31672951	          0.00000000	          0.00000000	          0.00000000	          0.00000000	         -0.42493125	          0.00000000	
          1.15000000	          0.00000015	         -0.00001845	          0.00000224	         -0.00000002	          0.00000000	         -0.00000001	       -103.19344588	        851.76404370	         -7.99209533	         -0.24083328	          0.00000000	          0.31703362	          0.00000000	          0.00000000	          0.00000000	          0.00000000	         -0.48607343	          0.00000000	
